<?xml version="1.0" standalone="no"?><!DOCTYPE svg PUBLIC "-//W3C//DTD SVG 1.1//EN" "http://www.w3.org/Graphics/SVG/1.1/DTD/svg11.dtd"><svg t="1587061483213" class="icon" viewBox="0 0 1024 1024" version="1.1" xmlns="http://www.w3.org/2000/svg" p-id="1235" xmlns:xlink="http://www.w3.org/1999/xlink" width="200" height="200"><defs><style type="text/css"></style></defs><path d="M113 489.5C113 268.9 291.6 90 512 90s399 178.9 399 399.5S732.4 889 512 889 113 710.1 113 489.5z" fill="#333F50" p-id="1236"></path><path d="M194.2 607.6l0.5 1.8 0.2 1.8-0.1 1.8-0.4 1.7-0.6 1.6-0.9 1.5-1.1 1.4-1.3 1.2-1.5 1-1.7 0.8-1.8 0.5-1.8 0.2-1.8-0.1-1.7-0.4-1.7-0.6-1.5-0.9-1.4-1.1-1.2-1.3-1-1.5-0.8-1.7-1-2.9-1-2.9-0.9-2.9-0.9-2.9-0.9-2.9-0.9-2.9-0.9-2.9-0.8-2.9-0.8-2.9-0.8-2.9-0.8-2.9-0.7-2.9-0.7-2.9-0.7-2.9-0.7-2.9-0.6-2.9-0.6-2.9-0.6-2.9-0.6-2.9-0.5-2.9-0.5-2.9-0.5-2.9-0.5-2.9-0.4-3-0.4-3-0.4-3-0.4-3-0.4-3-0.3-3-0.3-3-0.3-3-0.3-3-0.2-3-0.2-3-0.2-3-0.2-3-0.1-3-0.1-3-0.1-3-0.1-3v-15l0.1-3 0.1-3 0.1-3 0.1-3 0.2-3 0.2-3 0.2-3 0.2-3 0.3-3 0.3-3 0.3-3 0.3-3 0.4-2.9 0.4-2.9 0.4-2.9 0.4-2.9 0.4-2.9 0.5-2.9 0.5-2.9 0.5-2.9 0.5-2.9 0.6-2.9 0.6-2.9 0.6-2.9 0.6-2.9 0.7-2.9 0.7-2.9 0.7-2.9 0.7-2.9 0.7-2.9 0.8-2.9 0.8-2.9 0.8-2.9 0.8-2.9 0.9-2.9 0.9-2.9 0.9-2.8 0.9-2.8 1-2.8 1-2.8 1-2.8 1-2.8 1-2.8 1.1-2.8 1.1-2.8 1.1-2.8 1.1-2.8 1.2-2.8 1.2-2.8 1.2-2.8 1.2-2.8 1.3-2.7 1.3-2.7 2.6-5.4 1.4-2.8 1.4-2.7 1.4-2.7 1.4-2.7 1.4-2.7 1.5-2.6 1.5-2.6 1.5-2.6 1.5-2.6 1.5-2.6 1.6-2.6 1.6-2.6 1.6-2.5 1.6-2.5 1.6-2.5 1.6-2.5 1.7-2.5 1.7-2.5 1.7-2.5 1.7-2.4 1.7-2.4 1.8-2.4 1.8-2.4 1.8-2.4 1.8-2.4 1.8-2.4 1.9-2.3 1.9-2.3 1.9-2.3 1.9-2.3 1.9-2.3 1.9-2.3 2-2.2 2-2.2 2-2.2 2-2.2 2-2.2 2-2.2 2.1-2.1 2.1-2.1 2.1-2.1 2.1-2.1 2.1-2.1 2.1-2.1 2.2-2 2.2-2 2.2-2 2.2-2 2.2-2 2.2-2 2.3-1.9 2.3-1.9 2.3-1.9 2.3-1.9 2.3-1.9 2.3-1.9 2.3-1.8 2.4-1.8 2.4-1.8 2.4-1.8 2.4-1.8 2.4-1.7 2.4-1.7 2.4-1.7 2.5-1.7 2.5-1.7 2.5-1.6 2.5-1.6 2.5-1.6 2.5-1.6 2.5-1.6 2.6-1.5 2.6-1.5 2.6-1.5 2.6-1.5 2.6-1.5 2.6-1.4 2.6-1.4 2.6-1.4 2.7-1.4 2.7-1.4 2.7-1.3 2.7-1.3 2.7-1.3 2.7-1.3 2.7-1.3 2.7-1.2 2.8-1.2 2.8-1.2 2.8-1.2 2.8-1.2 2.8-1.1 2.8-1.1 2.8-1.1 2.8-1.1 2.8-1 2.8-1 2.9-1 5.7-1.9 3.7-0.6 3.5 0.6 3.2 1.6 2.6 2.5 1.7 3.3 0.6 3.6-0.6 3.5-1.6 3.2-2.5 2.5-3.3 1.7-5.4 1.8-2.7 0.9-2.7 1-2.7 1-2.7 1-2.6 1-2.6 1-2.6 1.1-2.6 1.1-2.6 1.1-2.6 1.1-2.6 1.1-2.6 1.2-2.6 1.2-2.5 1.2-2.5 1.2-2.5 1.2-2.5 1.3-2.5 1.3-2.5 1.3-2.5 1.3-2.5 1.3-2.5 1.4-2.4 1.4-2.4 1.4-2.4 1.4-2.4 1.4-2.4 1.5-2.4 1.5-2.4 1.5-2.4 1.5-2.3 1.5-2.3 1.5-2.3 1.6-2.3 1.6-2.3 1.6-2.3 1.6-2.3 1.6-2.3 1.7-2.2 1.7-2.2 1.7-2.2 1.7-2.2 1.7-2.2 1.7-2.2 1.8-2.2 1.8-2.1 1.8-2.1 1.8-2.1 1.8-2.1 1.8-2.1 1.9-2.1 1.9-2.1 1.9-2 1.9-2 1.9-2 1.9-2 2-2 2-2 2-2 2-1.9 2-1.9 2-1.9 2-1.9 2.1-1.9 2.1-1.9 2.1-1.8 2.1-1.8 2.1-1.8 2.1-1.8 2.2-1.8 2.2-1.8 2.2-1.7 2.2-1.7 2.2-1.7 2.2-1.7 2.2-1.7 2.3-1.7 2.3-1.6 2.3-1.6 2.3-1.6 2.3-1.6 2.3-1.6 2.3-1.5 2.4-1.5 2.4-1.5 2.4-1.5 2.4-1.5 2.4-1.5 2.4-1.4 2.4-1.7 2.8-1.4 2.5-1.4 2.5-1.4 2.5-1.3 2.5-1.3 2.5-1.3 2.5-1.3 2.5-1.2 2.5-2.5 5.2-1.2 2.6-1.2 2.6-1.2 2.6-1.1 2.6-1.1 2.6-1.1 2.6-1.1 2.6-1.1 2.6-1 2.6-1 2.6-1 2.6-1 2.6-0.9 2.7-0.9 2.7-0.9 2.7-0.9 2.7-0.9 2.7-0.8 2.7-0.8 2.7-0.8 2.7-0.8 2.7-0.7 2.7-0.7 2.7-0.7 2.7-0.7 2.7-0.7 2.7-0.6 2.7-0.6 2.7-0.6 2.7-0.6 2.7-0.6 2.7-0.5 2.7-0.5 2.7-0.5 2.7-0.5 2.8-0.4 2.8-0.4 2.8-0.4 2.8-0.4 2.8-0.4 2.8-0.3 2.8-0.3 2.8-0.3 2.8-0.3 2.8-0.2 2.8-0.2 2.8-0.2 2.8-0.2 2.8-0.2 2.8-0.1 2.8-0.1 2.8-0.1 2.8-0.1 2.8v14l0.1 2.8 0.1 2.8 0.1 2.8 0.1 2.8 0.2 2.8 0.2 2.8 0.2 2.8 0.2 2.8 0.2 2.8 0.3 2.8 0.3 2.8 0.3 2.8 0.3 2.8 0.4 2.8 0.4 2.8 0.4 2.8 0.4 2.8 0.4 2.8 0.5 2.8 0.5 2.8 0.5 2.8 0.5 2.8 0.6 2.8 0.6 2.8 0.6 2.7 0.6 2.7 0.6 2.7 0.7 2.7 0.7 2.7 0.7 2.7 0.7 2.7 0.8 2.7 0.8 2.7 0.8 2.7 0.8 2.7 0.8 2.7 0.9 2.7 0.9 2.7 0.9 2.7 1.1 1.9zM181 653c0-7.7 6.3-14 14-14s14 6.3 14 14-6.3 14-14 14-14-6.3-14-14zM468.8 178.7c-0.4-0.6-1.1-1-1.9-0.9l-8.3 1-5.5-6.3c-0.5-0.6-1.3-0.8-2-0.6-0.7 0.2-1.3 0.8-1.4 1.5l-1.6 8.2-7.7 3.3c-0.7 0.3-1.1 1-1.2 1.7 0 0.7 0.4 1.5 1 1.8l7.3 4.1 0.8 8.3c0.1 0.7 0.6 1.4 1.3 1.7 0.7 0.3 1.5 0.1 2-0.4l6.2-5.7 8.2 1.8c0.3 0.1 0.6 0.1 0.9 0 0.4-0.1 0.8-0.3 1-0.7 0.5-0.6 0.6-1.4 0.3-2.1l-3.5-7.6 4.3-7.2c0.2-0.5 0.2-1.3-0.2-1.9zM805.8 297.3c-0.2-0.7-0.8-1.2-1.6-1.4l-8.2-1.2-3.7-7.6c-0.3-0.7-1-1.1-1.8-1.1s-1.4 0.4-1.8 1.1l-3.7 7.6-8.2 1.2c-0.7 0.1-1.4 0.6-1.6 1.4-0.2 0.7 0 1.5 0.5 2l6 5.9-1.4 8.3c-0.1 0.8 0.2 1.5 0.8 1.9 0.6 0.4 1.4 0.5 2.1 0.2l7.4-3.9 7.4 3.9c0.3 0.2 0.6 0.2 0.9 0.2 0.4 0 0.8-0.1 1.2-0.4 0.6-0.4 0.9-1.2 0.8-1.9l-1.4-8.3 6-5.9c0.3-0.5 0.5-1.3 0.3-2zM550.8 826.9c-0.2-0.7-0.8-1.2-1.6-1.3l-8.2-1.2-3.7-7.3c-0.3-0.7-1-1.1-1.8-1.1s-1.4 0.4-1.8 1.1l-3.7 7.3-8.2 1.2c-0.7 0.1-1.4 0.6-1.6 1.3-0.2 0.7 0 1.5 0.5 2l6 5.7-1.4 8.1c-0.1 0.7 0.2 1.5 0.8 1.9 0.6 0.4 1.4 0.5 2.1 0.1l7.4-3.8 7.4 3.8c0.3 0.1 0.6 0.2 0.9 0.2 0.4 0 0.8-0.1 1.2-0.4 0.6-0.4 0.9-1.2 0.8-1.9l-1.4-8.1 6-5.7c0.3-0.4 0.5-1.2 0.3-1.9z" fill="#FFFFFF" p-id="1237"></path><path d="M247.4 576.2c0-0.7-0.4-1.4-1.1-1.8l-7.4-3.8-1.1-8.3c-0.1-0.7-0.6-1.4-1.3-1.6-0.7-0.2-1.5-0.1-2 0.5l-6 5.9-8.2-1.6c-0.7-0.1-1.5 0.2-1.9 0.7-0.5 0.6-0.5 1.4-0.2 2.1l3.8 7.5-4 7.3c-0.4 0.7-0.3 1.5 0.1 2.1 0.4 0.6 1.2 0.9 1.9 0.8l8.3-1.3 5.7 6.1c0.2 0.2 0.5 0.4 0.8 0.5 0.4 0.1 0.8 0.1 1.2 0 0.7-0.2 1.2-0.8 1.4-1.6l1.4-8.3 7.6-3.6c0.5-0.1 1-0.8 1-1.6zM800.8 654.3c-0.2-0.7-0.8-1.2-1.6-1.4l-8.2-1.2-3.7-7.6c-0.3-0.7-1-1.1-1.8-1.1s-1.4 0.4-1.8 1.1l-3.7 7.6-8.2 1.2c-0.7 0.1-1.4 0.6-1.6 1.4-0.2 0.7 0 1.5 0.5 2l6 5.9-1.4 8.3c-0.1 0.8 0.2 1.5 0.8 1.9 0.6 0.4 1.4 0.5 2.1 0.2l7.4-3.9 7.4 3.9c0.3 0.2 0.6 0.2 0.9 0.2 0.4 0 0.8-0.1 1.2-0.4 0.6-0.4 0.9-1.2 0.8-1.9l-1.4-8.3 6-5.9c0.3-0.5 0.5-1.3 0.3-2z" fill="#FFFFFF" p-id="1238"></path><path d="M865.7 552.7c38.3 22.6 51 71.9 28.4 110.2-15.5 26.3-43.7 40.6-72.2 39.5l-6.2-0.5-2.2-1.2c-38.3-22.6-51-71.9-28.4-110.2 15.5-26.3 43.7-40.6 72.2-39.5l6.2 0.5 2.2 1.2z" fill="#44546A" p-id="1239"></path><path d="M895.3 562.2c38.3 22.6 51 71.9 28.4 110.2-21.2 35.9-65.9 49.3-102.9 32.2l-5.1-2.7 6.2 0.5c28.5 1 56.7-13.2 72.2-39.5 22.6-38.3 9.9-87.6-28.4-110.2l-2.2-1.2 1.6 0.1c10.3 1.5 20.6 4.9 30.2 10.6z" fill="#FACC7E" p-id="1240"></path><path d="M723.7 380.9l4.2 4.7c19.8 24.3 24.3 59.1 8.7 88.5-15.6 29.5-46.9 45.2-78.2 42.5l-7.7-1.1-4.2-4.7c-19.8-24.3-24.3-59.1-8.7-88.5 15.6-29.5 46.9-45.2 78.2-42.5l7.7 1.1z" fill="#44546A" p-id="1241"></path><path d="M746.6 389c39.3 20.8 54.2 69.5 33.4 108.8-20.8 39.3-69.5 54.2-108.8 33.4-7.4-3.9-13.9-8.8-19.5-14.4l-1.1-1.2 7.7 1.1c31.2 2.7 62.6-13.1 78.2-42.5 15.6-29.5 11.1-64.2-8.7-88.5l-4.2-4.7h0.1c7.9 1.4 15.6 4.1 22.9 8zM430 396.5c0-44.5 36-80.5 80.5-80.5s80.5 36 80.5 80.5-36 80.5-80.5 80.5-80.5-36-80.5-80.5zM247.6 425.3l5.8-2.4c29.6-10.3 63.8-2.8 86.2 22s26.6 59.5 13.4 88l-3.6 6.9-5.8 2.4c-29.6 10.3-63.8 2.8-86.2-22-22.4-24.7-26.6-59.5-13.4-88l3.6-6.9z" fill="#FACC7E" p-id="1242"></path><path d="M263 406.4c32.9-29.8 83.8-27.3 113.7 5.6 29.8 32.9 27.3 83.8-5.6 113.7-6.2 5.6-13 10.1-20.2 13.4l-1.5 0.6 3.6-6.9c13.2-28.5 9-63.3-13.4-88-22.4-24.7-56.6-32.3-86.2-22l-5.8 2.4 0.1-0.1c4-6.7 9.1-13.1 15.3-18.7z" fill="#44546A" p-id="1243"></path><path d="M122.2 591c34.2-28.4 85-23.6 113.3 10.6 19.5 23.5 23.3 54.9 12.7 81.4l-2.6 5.6-1.8 1.7c-34.2 28.4-85 23.6-113.3-10.6-19.5-23.5-23.3-54.9-12.7-81.4l2.6-5.6 1.8-1.7z" fill="#FACC7E" p-id="1244"></path><path d="M141.1 566.4c34.2-28.4 85-23.6 113.3 10.6 26.6 32.1 24.1 78.7-4.6 107.8l-4.2 3.9 2.6-5.6c10.6-26.5 6.8-57.8-12.7-81.4-28.4-34.2-79.1-39-113.3-10.6l-1.8 1.7 0.7-1.5c4.8-9.3 11.5-17.8 20-24.9z" fill="#44546A" p-id="1245"></path><path d="M520.3 551c133 0 245.6 87.5 283.1 208.1l0.6 2.2-9.8 10.8C721.9 844.3 622 889 511.7 889c-96.5 0-185-34.2-254.1-91.1L233 775.5l4.2-16.4C274.7 638.5 387.3 551 520.3 551z" fill="#8CD092" p-id="1246"></path><path d="M431.9 564l8.1 5.1c18.9 12.7 37.5 28.4 47.4 37 15.9 13.8 20.8 17.2 15.5 28.4-5.4 11.2-27.1 21.1-47.7 38.8-20.6 17.7-54.6 55.6-76.1 67.2-21.5 11.6-46.6-5.6-52.9 2.6-6.2 8.2 15.3 34.3 15.5 46.5 0.2 12.3-2.2 25.9-14.2 27.2-12 1.3-44.9-6.5-58-19.4-13.1-12.9-14-32.3-20.6-58.2l-1.9-5.8 0.6-1.7c30-71 86.7-127.9 157.5-157.9l26.8-9.8zM586.3 686c15.8 0.2 34.2 4.4 48.3 7.7 22.6 5.4 37 25.4 63.3 29.7 19.7 3.2 43.8 1.7 68.9-0.9L788 720l5.5 11.3c3.8 8.9 7.1 17.9 10 27.2l0.6 2.2-9.8 10.8c-27.1 27.1-58.1 50.3-92.1 68.7l-3.5 1.7-0.7-1.1c-10.3-12.3-36.8-25-55.5-29.7-18.7-4.7-39.4 10.5-56.8 1.3-17.4-9.3-43.9-36.6-47.8-56.8-3.9-20.2 8.4-54.2 24.5-64.5 5.9-3.8 14.4-5.2 23.9-5.1zM667.8 590l18.7 11.3c23.6 15.9 44.9 35.2 63 57.1l11.5 15.4-10.2 0.8c-16.5 0.9-34.5 0.3-48.6-1.4-28.2-3.4-55.7-23.2-81.4-27-25.6-3.9-63.5 9.9-72.3 3.9-8.8-6 7.3-33.9 19.4-39.9 12.1-6 32.7 9 52.9 3.9 12.6-3.2 30.2-14.1 45.4-23l1.6-1.1z" fill="#FACC7E" p-id="1247"></path></svg>