<?xml version="1.0" standalone="no"?><!DOCTYPE svg PUBLIC "-//W3C//DTD SVG 1.1//EN" "http://www.w3.org/Graphics/SVG/1.1/DTD/svg11.dtd"><svg t="1587061680852" class="icon" viewBox="0 0 1024 1024" version="1.1" xmlns="http://www.w3.org/2000/svg" p-id="1375" xmlns:xlink="http://www.w3.org/1999/xlink" width="200" height="200"><defs><style type="text/css"></style></defs><path d="M113 489.5C113 268.9 291.6 90 512 90s399 178.9 399 399.5S732.4 889 512 889 113 710.1 113 489.5z" fill="#333F50" p-id="1376"></path><path d="M194.2 607.6l0.5 1.8 0.2 1.8-0.1 1.8-0.4 1.7-0.6 1.6-0.9 1.5-1.1 1.4-1.3 1.2-1.5 1-1.7 0.8-1.8 0.5-1.8 0.2-1.8-0.1-1.7-0.4-1.7-0.6-1.5-0.9-1.4-1.1-1.2-1.3-1-1.5-0.8-1.7-1-2.9-1-2.9-0.9-2.9-0.9-2.9-0.9-2.9-0.9-2.9-0.9-2.9-0.8-2.9-0.8-2.9-0.8-2.9-0.8-2.9-0.7-2.9-0.7-2.9-0.7-2.9-0.7-2.9-0.6-2.9-0.6-2.9-0.6-2.9-0.6-2.9-0.5-2.9-0.5-2.9-0.5-2.9-0.5-2.9-0.4-3-0.4-3-0.4-3-0.4-3-0.4-3-0.3-3-0.3-3-0.3-3-0.3-3-0.2-3-0.2-3-0.2-3-0.2-3-0.1-3-0.1-3-0.1-3-0.1-3v-15l0.1-3 0.1-3 0.1-3 0.1-3 0.2-3 0.2-3 0.2-3 0.2-3 0.3-3 0.3-3 0.3-3 0.3-3 0.4-2.9 0.4-2.9 0.4-2.9 0.4-2.9 0.4-2.9 0.5-2.9 0.5-2.9 0.5-2.9 0.5-2.9 0.6-2.9 0.6-2.9 0.6-2.9 0.6-2.9 0.7-2.9 0.7-2.9 0.7-2.9 0.7-2.9 0.7-2.9 0.8-2.9 0.8-2.9 0.8-2.9 0.8-2.9 0.9-2.9 0.9-2.9 0.9-2.8 0.9-2.8 1-2.8 1-2.8 1-2.8 1-2.8 1-2.8 1.1-2.8 1.1-2.8 1.1-2.8 1.1-2.8 1.2-2.8 1.2-2.8 1.2-2.8 1.2-2.8 1.3-2.7 1.3-2.7 2.6-5.4 1.4-2.8 1.4-2.7 1.4-2.7 1.4-2.7 1.4-2.7 1.5-2.6 1.5-2.6 1.5-2.6 1.5-2.6 1.5-2.6 1.6-2.6 1.6-2.6 1.6-2.5 1.6-2.5 1.6-2.5 1.6-2.5 1.7-2.5 1.7-2.5 1.7-2.5 1.7-2.4 1.7-2.4 1.8-2.4 1.8-2.4 1.8-2.4 1.8-2.4 1.8-2.4 1.9-2.3 1.9-2.3 1.9-2.3 1.9-2.3 1.9-2.3 1.9-2.3 2-2.2 2-2.2 2-2.2 2-2.2 2-2.2 2-2.2 2.1-2.1 2.1-2.1 2.1-2.1 2.1-2.1 2.1-2.1 2.1-2.1 2.2-2 2.2-2 2.2-2 2.2-2 2.2-2 2.2-2 2.3-1.9 2.3-1.9 2.3-1.9 2.3-1.9 2.3-1.9 2.3-1.9 2.3-1.8 2.4-1.8 2.4-1.8 2.4-1.8 2.4-1.8 2.4-1.7 2.4-1.7 2.4-1.7 2.5-1.7 2.5-1.7 2.5-1.6 2.5-1.6 2.5-1.6 2.5-1.6 2.5-1.6 2.6-1.5 2.6-1.5 2.6-1.5 2.6-1.5 2.6-1.5 2.6-1.4 2.6-1.4 2.6-1.4 2.7-1.4 2.7-1.4 2.7-1.3 2.7-1.3 2.7-1.3 2.7-1.3 2.7-1.3 2.7-1.2 2.8-1.2 2.8-1.2 2.8-1.2 2.8-1.2 2.8-1.1 2.8-1.1 2.8-1.1 2.8-1.1 2.8-1 2.8-1 2.9-1 5.7-1.9 3.7-0.6 3.5 0.6 3.2 1.6 2.6 2.5 1.7 3.3 0.6 3.6-0.6 3.5-1.6 3.2-2.5 2.5-3.3 1.7-5.4 1.8-2.7 0.9-2.7 1-2.7 1-2.7 1-2.6 1-2.6 1-2.6 1.1-2.6 1.1-2.6 1.1-2.6 1.1-2.6 1.1-2.6 1.2-2.6 1.2-2.5 1.2-2.5 1.2-2.5 1.2-2.5 1.3-2.5 1.3-2.5 1.3-2.5 1.3-2.5 1.3-2.5 1.4-2.4 1.4-2.4 1.4-2.4 1.4-2.4 1.4-2.4 1.5-2.4 1.5-2.4 1.5-2.4 1.5-2.3 1.5-2.3 1.5-2.3 1.6-2.3 1.6-2.3 1.6-2.3 1.6-2.3 1.6-2.3 1.7-2.2 1.7-2.2 1.7-2.2 1.7-2.2 1.7-2.2 1.7-2.2 1.8-2.2 1.8-2.1 1.8-2.1 1.8-2.1 1.8-2.1 1.8-2.1 1.9-2.1 1.9-2.1 1.9-2 1.9-2 1.9-2 1.9-2 2-2 2-2 2-2 2-1.9 2-1.9 2-1.9 2-1.9 2.1-1.9 2.1-1.9 2.1-1.8 2.1-1.8 2.1-1.8 2.1-1.8 2.2-1.8 2.2-1.8 2.2-1.7 2.2-1.7 2.2-1.7 2.2-1.7 2.2-1.7 2.3-1.7 2.3-1.6 2.3-1.6 2.3-1.6 2.3-1.6 2.3-1.6 2.3-1.5 2.4-1.5 2.4-1.5 2.4-1.5 2.4-1.5 2.4-1.5 2.4-1.4 2.4-1.7 2.8-1.4 2.5-1.4 2.5-1.4 2.5-1.3 2.5-1.3 2.5-1.3 2.5-1.3 2.5-1.2 2.5-2.5 5.2-1.2 2.6-1.2 2.6-1.2 2.6-1.1 2.6-1.1 2.6-1.1 2.6-1.1 2.6-1.1 2.6-1 2.6-1 2.6-1 2.6-1 2.6-0.9 2.7-0.9 2.7-0.9 2.7-0.9 2.7-0.9 2.7-0.8 2.7-0.8 2.7-0.8 2.7-0.8 2.7-0.7 2.7-0.7 2.7-0.7 2.7-0.7 2.7-0.7 2.7-0.6 2.7-0.6 2.7-0.6 2.7-0.6 2.7-0.6 2.7-0.5 2.7-0.5 2.7-0.5 2.7-0.5 2.8-0.4 2.8-0.4 2.8-0.4 2.8-0.4 2.8-0.4 2.8-0.3 2.8-0.3 2.8-0.3 2.8-0.3 2.8-0.2 2.8-0.2 2.8-0.2 2.8-0.2 2.8-0.2 2.8-0.1 2.8-0.1 2.8-0.1 2.8-0.1 2.8v14l0.1 2.8 0.1 2.8 0.1 2.8 0.1 2.8 0.2 2.8 0.2 2.8 0.2 2.8 0.2 2.8 0.2 2.8 0.3 2.8 0.3 2.8 0.3 2.8 0.3 2.8 0.4 2.8 0.4 2.8 0.4 2.8 0.4 2.8 0.4 2.8 0.5 2.8 0.5 2.8 0.5 2.8 0.5 2.8 0.6 2.8 0.6 2.8 0.6 2.7 0.6 2.7 0.6 2.7 0.7 2.7 0.7 2.7 0.7 2.7 0.7 2.7 0.8 2.7 0.8 2.7 0.8 2.7 0.8 2.7 0.8 2.7 0.9 2.7 0.9 2.7 0.9 2.7 1.1 1.9zM181 653c0-7.7 6.3-14 14-14s14 6.3 14 14-6.3 14-14 14-14-6.3-14-14zM468.8 178.7c-0.4-0.6-1.1-1-1.9-0.9l-8.3 1-5.5-6.3c-0.5-0.6-1.3-0.8-2-0.6-0.7 0.2-1.3 0.8-1.4 1.5l-1.6 8.2-7.7 3.3c-0.7 0.3-1.1 1-1.2 1.7 0 0.7 0.4 1.5 1 1.8l7.3 4.1 0.8 8.3c0.1 0.7 0.6 1.4 1.3 1.7 0.7 0.3 1.5 0.1 2-0.4l6.2-5.7 8.2 1.8c0.3 0.1 0.6 0.1 0.9 0 0.4-0.1 0.8-0.3 1-0.7 0.5-0.6 0.6-1.4 0.3-2.1l-3.5-7.6 4.3-7.2c0.2-0.5 0.2-1.3-0.2-1.9zM805.8 297.3c-0.2-0.7-0.8-1.2-1.6-1.4l-8.2-1.2-3.7-7.6c-0.3-0.7-1-1.1-1.8-1.1s-1.4 0.4-1.8 1.1l-3.7 7.6-8.2 1.2c-0.7 0.1-1.4 0.6-1.6 1.4-0.2 0.7 0 1.5 0.5 2l6 5.9-1.4 8.3c-0.1 0.8 0.2 1.5 0.8 1.9 0.6 0.4 1.4 0.5 2.1 0.2l7.4-3.9 7.4 3.9c0.3 0.2 0.6 0.2 0.9 0.2 0.4 0 0.8-0.1 1.2-0.4 0.6-0.4 0.9-1.2 0.8-1.9l-1.4-8.3 6-5.9c0.3-0.5 0.5-1.3 0.3-2zM550.8 826.9c-0.2-0.7-0.8-1.2-1.6-1.3l-8.2-1.2-3.7-7.3c-0.3-0.7-1-1.1-1.8-1.1s-1.4 0.4-1.8 1.1l-3.7 7.3-8.2 1.2c-0.7 0.1-1.4 0.6-1.6 1.3-0.2 0.7 0 1.5 0.5 2l6 5.7-1.4 8.1c-0.1 0.7 0.2 1.5 0.8 1.9 0.6 0.4 1.4 0.5 2.1 0.1l7.4-3.8 7.4 3.8c0.3 0.1 0.6 0.2 0.9 0.2 0.4 0 0.8-0.1 1.2-0.4 0.6-0.4 0.9-1.2 0.8-1.9l-1.4-8.1 6-5.7c0.3-0.4 0.5-1.2 0.3-1.9z" fill="#FFFFFF" p-id="1377"></path><path d="M247.4 576.2c0-0.7-0.4-1.4-1.1-1.8l-7.4-3.8-1.1-8.3c-0.1-0.7-0.6-1.4-1.3-1.6-0.7-0.2-1.5-0.1-2 0.5l-6 5.9-8.2-1.6c-0.7-0.1-1.5 0.2-1.9 0.7-0.5 0.6-0.5 1.4-0.2 2.1l3.8 7.5-4 7.3c-0.4 0.7-0.3 1.5 0.1 2.1 0.4 0.6 1.2 0.9 1.9 0.8l8.3-1.3 5.7 6.1c0.2 0.2 0.5 0.4 0.8 0.5 0.4 0.1 0.8 0.1 1.2 0 0.7-0.2 1.2-0.8 1.4-1.6l1.4-8.3 7.6-3.6c0.5-0.1 1-0.8 1-1.6zM800.8 654.3c-0.2-0.7-0.8-1.2-1.6-1.4l-8.2-1.2-3.7-7.6c-0.3-0.7-1-1.1-1.8-1.1s-1.4 0.4-1.8 1.1l-3.7 7.6-8.2 1.2c-0.7 0.1-1.4 0.6-1.6 1.4-0.2 0.7 0 1.5 0.5 2l6 5.9-1.4 8.3c-0.1 0.8 0.2 1.5 0.8 1.9 0.6 0.4 1.4 0.5 2.1 0.2l7.4-3.9 7.4 3.9c0.3 0.2 0.6 0.2 0.9 0.2 0.4 0 0.8-0.1 1.2-0.4 0.6-0.4 0.9-1.2 0.8-1.9l-1.4-8.3 6-5.9c0.3-0.5 0.5-1.3 0.3-2z" fill="#FFFFFF" p-id="1378"></path><path d="M690.6 270.1l-13.9-9.6 83.5-120.8 13.9 9.6-83.5 120.8z" fill="#D6DCE5" p-id="1379"></path><path d="M709.7 297c-12.4 18-37 22.4-55 10-18-12.4-22.4-37-10-55 12.4-18 37-22.4 55-10 17.9 12.5 22.4 37.1 10 55z" fill="#D6DCE5" p-id="1380"></path><path d="M784.8 156.5c-6.7 9.7-20.1 12.2-29.8 5.4-9.7-6.7-12.2-20.1-5.4-29.8 6.7-9.7 20.1-12.2 29.8-5.4 9.7 6.8 12.2 20.1 5.4 29.8z" fill="#FACC7E" p-id="1381"></path><path d="M581.1 743.8l-301.4-227 20.5-27.2 301.4 227-20.5 27.2z" fill="#ADB9CA" p-id="1382"></path><path d="M664.7 943.8c-11.1 14.7-31.9 17.6-46.6 6.6l-106.4-80.1c-14.7-11.1-17.6-31.9-6.6-46.6l160.7-213.5c11.1-14.7 31.9-17.6 46.6-6.6l106.4 80.1c14.7 11.1 17.6 31.9 6.6 46.6L664.7 943.8z" fill="#5EC8FA" p-id="1383"></path><path d="M681 750.8l32.8-43.5-43.5-32.8-32.8 43.5 43.5 32.8z m52 39.1l32.8-43.5-43.5-32.8-32.8 43.5 43.5 32.8z m-91.1 12.8l32.8-43.5-43.5-32.8-32.8 43.6 43.5 32.7z m51.9 39.1l32.8-43.5-43.5-32.8-32.8 43.5 43.5 32.8z m-91 12.9l32.8-43.5-43.6-32.8-32.8 43.5 43.6 32.8z m51.9 39.1l32.8-43.5-43.5-32.8-32.8 43.5 43.5 32.8zM618 950.4l-3.8-2.8 34.1-45.3-43.5-32.8-34.1 45.3-8.5-6.4 34.1-45.3-43.5-32.8-34.1 45.3-7.2-5.4-1.2-1.1 34-45.1-25.4-19.1 6.4-8.5 25.4 19.1 32.8-43.5-25.4-19.1 6.4-8.5 25.4 19.1 32.8-43.5-25.4-19 6.4-8.5 25.4 19.1 32.8-43.5-25.4-19.1 6.4-8.5 25.4 19.1 42.9-57 1.3 0.8 7.2 5.4-43 57.1 43.5 32.8 43-57.1 8.5 6.4-43 57.1 43.5 32.8 43-57.1 3.8 2.8 4.3 4-42.6 56.6 21.9 16.5-6.4 8.5-21.9-16.5-32.8 43.5 21.9 16.5-6.4 8.5-22-16.5-32.8 43.5 21.9 16.5-6.4 8.5-21.9-16.5-32.8 43.5 21.9 16.5-6.4 8.5-21.9-16.5-33.7 44.8-4.9-3.1z" fill="#0573A7" p-id="1384"></path><path d="M211.5 607c-11.1 14.7-31.9 17.6-46.6 6.6L58.4 533.4c-14.7-11.1-17.6-31.9-6.6-46.6l160.7-213.5c11.1-14.7 31.9-17.6 46.6-6.6l106.4 80.1c14.7 11.1 17.6 31.9 6.6 46.6L211.5 607z" fill="#5EC8FA" p-id="1385"></path><path d="M227.8 413.9l32.8-43.5-43.5-32.8-32.8 43.5 43.5 32.8z m52 39.2l32.8-43.5-43.5-32.8-32.8 43.5 43.5 32.8z m-91.1 12.8l32.8-43.5-43.5-32.8-32.8 43.5 43.5 32.8z m52 39.1l32.8-43.5-43.5-32.8-32.8 43.5 43.5 32.8z m-91.1 12.9l32.8-43.5-43.5-32.8-32.8 43.5 43.5 32.8z m51.9 39.1l32.8-43.5-43.5-32.8-32.8 43.5 43.5 32.8z m-36.7 56.5l-3.8-2.8 34.1-45.3-43.5-32.8-34.1 45.3-8.5-6.4 34.1-45.3-43.5-32.8-34.1 45.3-7.2-5.4-1.2-1.1 34-45.1L65.7 468l6.4-8.5 25.4 19.1 32.8-43.5-25.3-19 6.4-8.5 25.4 19.1 32.8-43.5-25.4-19.1 6.4-8.5 25.4 19.1 32.8-43.5-25.4-19.1 6.4-8.5 25.4 19.1 42.9-57 1.3 0.8 7.2 5.4-43 57.1 43.4 33 43-57.1 8.5 6.4-43 57.1 43.5 32.8 43-57.1 3.8 2.8 4.3 4-42.6 56.6 21.9 16.5-6.4 8.5-22-16.6-32.8 43.5 21.9 16.5-6.4 8.5-21.9-16.5-32.8 43.5 21.9 16.5-6.4 8.5-21.9-16.5-32.6 43.4 21.9 16.5-6.4 8.5-21.9-16.5-33.7 44.8-5.1-3.1z" fill="#0573A7" p-id="1386"></path><path d="M361 783l-41.4 33.5-60.1-45.3 20.8-49.1L361 783zM617.9 441.8l20.8-49.1-60.1-45.3-41.5 33.6 80.8 60.8z" fill="#5EC8FA" p-id="1387"></path><path d="M422.2 804.3c-12.4 16.5-35.9 19.8-52.4 7.4l-119.6-90c-16.5-12.4-19.8-35.9-7.4-52.4l235-312.1c12.4-16.5 35.9-19.8 52.4-7.4l119.6 90c16.5 12.4 19.8 35.9 7.4 52.4l-235 312.1z" fill="#FACC7E" p-id="1388"></path><path d="M299.6 891.5l-106.2-81.4c11.3-26.5 37.9-43.2 66.7-41.8 10.8 0.5 21.1 3.5 30.1 8.5l0.9 0.6 13.3 10 2.2 1.9c7.2 7.4 12.8 16.6 16.1 26.9 8.7 27.4-0.5 57.5-23.1 75.3z" fill="#E6E5E5" p-id="1389"></path><path d="M596.3 388c-18.1-13.4-32.3-32.3-39.8-54.6-15.2-44.7-0.9-94.2 35.7-124l176.2 130.5c-17.9 43.7-61 71.8-108.2 70.3-23.6-0.8-45.8-8.8-63.9-22.2z" fill="#ADB9CA" p-id="1390"></path><path d="M380.2 754.8c-4.7 6.2-13.5 7.5-19.8 2.8L243 669.2l17-22.5L377.4 735c6.3 4.7 7.5 13.6 2.8 19.8zM597.9 465c-4.7 6.2-13.5 7.5-19.8 2.8l-117.4-88.4 17-22.5 117.4 88.4c6.3 4.7 7.5 13.5 2.8 19.7z" fill="#F97B6E" p-id="1391"></path></svg>