<?xml version="1.0" standalone="no"?>
<!DOCTYPE svg PUBLIC "-//W3C//DTD SVG 20010904//EN"
 "http://www.w3.org/TR/2001/REC-SVG-20010904/DTD/svg10.dtd">
<svg version="1.0" xmlns="http://www.w3.org/2000/svg"
 width="610.000000pt" height="610.000000pt" viewBox="0 0 610.000000 610.000000"
 preserveAspectRatio="xMidYMid meet">
<metadata>
Created by potrace 1.14, written by Peter Selinger 2001-2017
</metadata>
<g transform="translate(0.000000,610.000000) scale(0.100000,-0.100000)"
fill="#000000" stroke="none">
<path d="M3366 4590 c-227 -36 -462 -157 -621 -319 -40 -42 -48 -55 -39 -68
19 -30 32 -25 101 42 262 255 605 347 963 258 119 -30 280 -107 347 -166 14
-13 30 -17 45 -14 31 8 69 -23 61 -51 -3 -14 3 -29 19 -44 39 -37 123 -149
157 -209 39 -71 87 -200 108 -293 21 -97 21 -308 -1 -405 -32 -146 -113 -315
-203 -428 -18 -23 -33 -52 -33 -65 0 -33 -151 -183 -175 -174 -24 9 -1161
-1125 -1151 -1149 9 -24 -142 -175 -175 -175 -17 0 -49 -25 -109 -86 -196
-198 -380 -287 -665 -323 -182 -24 -412 27 -583 128 -59 35 -80 38 -89 16 -9
-25 23 -51 121 -99 217 -107 437 -136 690 -90 43 8 104 14 136 14 115 0 293
46 410 105 66 33 183 110 200 130 11 13 93 15 595 15 614 0 616 0 599 44 -6
14 -58 16 -558 16 l-551 0 339 339 c310 310 338 341 325 357 -8 10 -36 40 -64
66 l-49 48 104 105 c58 58 109 105 115 105 5 0 37 -27 70 -60 l61 -60 380 382
c456 459 501 518 569 755 136 469 -68 962 -498 1201 -121 68 -310 121 -432
122 -33 0 -96 7 -140 16 -100 19 -301 26 -379 14z"/>
<path d="M2315 3840 l-190 -190 -66 66 c-44 44 -73 65 -85 62 -36 -7 -24 -35
43 -101 l68 -67 -354 -353 c-352 -354 -379 -385 -329 -395 12 -2 134 113 368
347 193 193 354 351 358 351 4 0 205 -198 447 -440 251 -251 448 -440 458
-440 57 0 25 37 -417 479 l-448 448 179 179 c98 99 184 187 191 196 15 19 6
48 -17 48 -9 0 -102 -85 -206 -190z"/>
<path d="M3460 3753 c-50 -18 -76 -70 -60 -119 14 -41 44 -64 83 -64 57 0 96
35 97 88 0 46 -16 71 -55 88 -37 15 -42 15 -65 7z"/>
<path d="M3725 3425 c-19 -18 -25 -35 -25 -65 0 -56 34 -90 90 -90 56 0 90 34
90 90 0 56 -34 90 -90 90 -30 0 -47 -6 -65 -25z"/>
<path d="M3207 3313 c-20 -19 0 -53 76 -130 95 -98 112 -109 133 -92 27 22 14
45 -79 137 -85 85 -113 103 -130 85z"/>
<path d="M1133 2655 c-68 -70 -164 -217 -202 -310 -137 -329 -102 -717 91
-1010 56 -85 91 -120 112 -112 27 10 18 37 -34 107 -63 84 -134 233 -161 336
-11 44 -24 122 -27 174 -22 301 65 550 273 785 38 43 44 69 18 79 -11 5 -32
-10 -70 -49z"/>
<path d="M2371 2536 c-18 -21 -6 -38 97 -139 98 -97 121 -106 133 -49 4 18 4
30 1 27 -3 -3 -47 35 -97 85 -93 91 -113 102 -134 76z"/>
<path d="M1968 2359 c-39 -15 -62 -70 -48 -114 14 -44 44 -65 91 -65 58 0 83
27 84 91 0 49 -2 54 -34 76 -37 25 -52 27 -93 12z"/>
<path d="M2291 2059 c-46 -10 -70 -44 -71 -96 0 -33 5 -46 27 -62 38 -30 66
-35 102 -17 36 19 51 44 51 86 0 64 -47 103 -109 89z"/>
<path d="M4 1185 c-4 -8 -1 -22 6 -30 11 -13 112 -15 774 -15 655 1 758 3 742
15 -10 7 -15 18 -11 24 3 7 0 8 -9 5 -9 -3 -16 -1 -16 5 0 8 -206 11 -740 11
-652 0 -741 -2 -746 -15z"/>
<path d="M4384 1185 c-4 -8 -4 -22 0 -30 5 -13 33 -15 193 -13 l188 3 0 25 0
25 -188 3 c-160 2 -188 0 -193 -13z"/>
<path d="M5016 1184 c-17 -44 -13 -44 548 -42 l531 3 0 25 0 25 -536 3 c-489
2 -537 1 -543 -14z"/>
<path d="M1585 1121 c-3 -5 -2 -12 3 -15 5 -3 9 1 9 9 0 17 -3 19 -12 6z"/>
</g>
</svg>
